<svg id="Logo_text" data-name="Logo text" xmlns="http://www.w3.org/2000/svg" width="416.565" height="92.591" viewBox="0 0 416.565 92.591">
  <g id="concept_2">
    <path id="Path_99" data-name="Path 99" d="M7.289,14.832H7.143V51.4H0V.91H9.952l8.009,30.227h.147V.91h7.066V51.4H17.025Z" transform="translate(0 -0.33)" fill="#fefefe"/>
    <path id="Path_100" data-name="Path 100" d="M63,12.7C63,4.619,67.224,0,75.017,0S87.059,4.619,87.059,12.7V38.956c0,8.079-4.256,12.7-12.042,12.7S63,47.035,63,38.956Zm7.933,26.76c0,3.606,1.587,4.976,4.116,4.976s4.11-1.37,4.11-4.976V12.189c0-3.606-1.587-4.976-4.11-4.976s-4.116,1.37-4.116,4.976Z" transform="translate(-22.859)" fill="#fefefe"/>
    <path id="Path_101" data-name="Path 101" d="M148.067.91l-8.283,24.524,8.869,25.97h-8.379l-6.423-19.981h-.14L127.219,51.4H119.79l8.869-25.97L120.363.91h8.226L134.5,19.521h.147L140.708.91Z" transform="translate(-43.465 -0.33)" fill="#fefefe"/>
    <path id="Path_102" data-name="Path 102" d="M186.81.91h7.939V51.4H186.81Z" transform="translate(-67.783 -0.33)" fill="#fefefe"/>
    <path id="Path_103" data-name="Path 103" d="M248.324,51.4h-8.009l-1.37-9.162h-9.736L227.845,51.4h-7.3L228.629.91h11.615ZM230.216,35.374h7.646L234.109,9.888h-.14Z" transform="translate(-80.026 -0.33)" fill="#fefefe"/>
    <path id="Path_104" data-name="Path 104" d="M292.6,14.832h-.147V51.4H285.31V.91h9.959l8,30.227h.147V.91h7.072V51.4h-8.175Z" transform="translate(-103.523 -0.33)" fill="#fefefe"/>
    <path id="Path_105" data-name="Path 105" d="M390.273,23.344h10.245v7.213H390.273V51.4H382.34V.91h21.026V8.123H390.3Z" transform="translate(-138.73 -0.33)" fill="#fefefe"/>
    <path id="Path_106" data-name="Path 106" d="M435.78,12.7c0-8.079,4.256-12.7,12.049-12.7s12.049,4.619,12.049,12.7V38.956c0,8.079-4.256,12.7-12.049,12.7s-12.049-4.619-12.049-12.7Zm7.933,26.76c0,3.606,1.593,4.976,4.116,4.976s4.11-1.37,4.11-4.976V12.189c0-3.606-1.586-4.976-4.11-4.976s-4.116,1.37-4.116,4.976Z" transform="translate(-158.121)" fill="#fefefe"/>
    <path id="Path_107" data-name="Path 107" d="M513.738,51.4c-.433-1.274-.726-2.09-.726-6.206V37.285c0-4.689-1.586-6.423-5.193-6.423h-2.74V51.4H497.14V.91h11.978c8.226,0,11.756,3.823,11.756,11.609v3.969c0,5.193-1.657,8.512-5.193,10.194v.14c3.969,1.663,5.269,5.409,5.269,10.679v7.773a14.8,14.8,0,0,0,.867,6.129ZM505.079,8.123V23.631h3.1c2.956,0,4.759-1.274,4.759-5.339V13.315c0-3.606-1.223-5.193-4.04-5.193Z" transform="translate(-180.385 -0.33)" fill="#fefefe"/>
    <path id="Path_108" data-name="Path 108" d="M569.7,22.938h11.112V38.956c0,8.079-4.04,12.7-11.832,12.7s-11.832-4.619-11.832-12.7V12.7c0-8.079,4.04-12.7,11.832-12.7s11.832,4.619,11.832,12.7V17.6h-7.506V12.189c0-3.606-1.586-4.976-4.11-4.976s-4.116,1.37-4.116,4.976v27.27c0,3.606,1.593,4.906,4.116,4.906s4.11-1.274,4.11-4.906v-9.3H569.7Z" transform="translate(-202.159)" fill="#fefefe"/>
    <path id="Path_109" data-name="Path 109" d="M625.758,22.191h10.9V29.4h-10.9V44.192h13.705V51.4H617.8V.91h21.663V8.123H625.758Z" transform="translate(-224.166 -0.33)" fill="#fefefe"/>
    <path id="Path_110" data-name="Path 110" d="M7.066,132.651a6.614,6.614,0,0,1-.306-2.638v-3.377c0-2-.675-2.733-2.211-2.733H3.383v8.748H0V111.16H5.1c3.5,0,5,1.625,5,4.944v1.688c0,2.211-.707,3.619-2.211,4.326v.064c1.688.707,2.243,2.3,2.243,4.543v3.313a6.333,6.333,0,0,0,.37,2.612ZM3.383,114.244v6.6H4.7c1.274,0,2.026-.554,2.026-2.275v-2.115c0-1.536-.522-2.211-1.72-2.211Z" transform="translate(0 -40.334)" fill="#fefefe"/>
    <path id="Path_111" data-name="Path 111" d="M26.323,111.16v16.566c0,1.536.675,2.09,1.752,2.09s1.746-.554,1.746-2.09V111.16h3.186v16.362c0,3.441-1.714,5.4-5.034,5.4s-5.034-1.962-5.034-5.4V111.16Z" transform="translate(-8.324 -40.334)" fill="#fefefe"/>
    <path id="Path_112" data-name="Path 112" d="M49.233,117.086h-.064v15.566H46.13V111.16h4.237l3.409,12.864h.057V111.16h3.046v21.491h-3.5Z" transform="translate(-16.738 -40.334)" fill="#fefefe"/>
    <path id="Path_113" data-name="Path 113" d="M73.937,120.214h4.638v3.071H73.937v6.3h5.824v3.071h-9.2V111.16h9.2v3.084H73.937Z" transform="translate(-25.602 -40.334)" fill="#fefefe"/>
    <path id="Path_114" data-name="Path 114" d="M90.56,111.16h10.475v3.084H97.467v18.42H94.1v-18.42H90.56Z" transform="translate(-32.859 -40.334)" fill="#fefefe"/>
    <path id="Path_115" data-name="Path 115" d="M116.447,120.214h4.638v3.071h-4.638v6.3h5.83v3.071H113.07V111.16h9.207v3.084h-5.83Z" transform="translate(-41.027 -40.334)" fill="#fefefe"/>
    <path id="Path_116" data-name="Path 116" d="M141.67,132.651a6.614,6.614,0,0,1-.306-2.638v-3.377c0-2-.675-2.733-2.211-2.733h-1.166v8.748H134.61V111.16h5.1c3.5,0,5.008,1.625,5.008,4.944v1.688c0,2.211-.707,3.619-2.211,4.326v.064c1.688.707,2.236,2.3,2.236,4.543v3.313a6.333,6.333,0,0,0,.37,2.612Zm-3.683-18.407v6.6h1.332c1.274,0,2.026-.554,2.026-2.275v-2.115c0-1.536-.516-2.211-1.714-2.211Z" transform="translate(-48.843 -40.334)" fill="#fefefe"/>
    <path id="Path_117" data-name="Path 117" d="M164.856,132.651a6.562,6.562,0,0,1-.312-2.638v-3.377c0-2-.675-2.733-2.211-2.733h-1.166v8.748H157.79V111.16h5.1c3.5,0,5.008,1.625,5.008,4.944v1.688c0,2.211-.707,3.619-2.211,4.326v.064c1.688.707,2.236,2.3,2.236,4.543v3.313a6.333,6.333,0,0,0,.37,2.612Zm-3.689-18.407v6.6h1.319c1.274,0,2.033-.554,2.033-2.275v-2.115c0-1.536-.522-2.211-1.72-2.211Z" transform="translate(-57.253 -40.334)" fill="#fefefe"/>
    <path id="Path_118" data-name="Path 118" d="M191.4,132.651H187.99l-.586-3.9h-4.142l-.586,3.9h-3.1l3.453-21.491h4.944Zm-7.729-6.818h3.256l-1.593-10.87h-.064Z" transform="translate(-65.16 -40.334)" fill="#fefefe"/>
    <path id="Path_119" data-name="Path 119" d="M225.267,124.494v2.854c0,3.441-1.714,5.409-5.034,5.409s-5.034-1.969-5.034-5.409V116.173c0-3.434,1.72-5.4,5.034-5.4s5.034,1.969,5.034,5.4v2.09h-3.186v-2.3c0-1.536-.675-2.122-1.746-2.122s-1.752.586-1.752,2.122v11.6c0,1.536.675,2.09,1.752,2.09s1.746-.554,1.746-2.09v-3.071Z" transform="translate(-78.084 -40.192)" fill="#fefefe"/>
    <path id="Path_120" data-name="Path 120" d="M237.65,116.173c0-3.434,1.81-5.4,5.1-5.4s5.129,1.969,5.129,5.4v11.176c0,3.441-1.81,5.409-5.129,5.409s-5.1-1.969-5.1-5.409Zm3.377,11.392c0,1.536.675,2.122,1.746,2.122s1.752-.586,1.752-2.122v-11.6c0-1.536-.675-2.122-1.752-2.122s-1.746.586-1.746,2.122Z" transform="translate(-86.23 -40.192)" fill="#fefefe"/>
    <path id="Path_121" data-name="Path 121" d="M271.349,132.651H267.94l-.58-3.9h-4.148l-.58,3.9h-3.1l3.441-21.491h4.938Zm-7.7-6.818H266.9l-1.593-10.87h-.064Z" transform="translate(-94.169 -40.334)" fill="#fefefe"/>
    <path id="Path_122" data-name="Path 122" d="M293.937,124.494v2.854c0,3.441-1.72,5.409-5.034,5.409s-5.034-1.969-5.034-5.409V116.173c0-3.434,1.72-5.4,5.034-5.4s5.034,1.969,5.034,5.4v2.09h-3.186v-2.3c0-1.536-.675-2.122-1.752-2.122s-1.746.586-1.746,2.122v11.6c0,1.536.675,2.09,1.746,2.09s1.752-.554,1.752-2.09v-3.071Z" transform="translate(-103.001 -40.192)" fill="#fefefe"/>
    <path id="Path_123" data-name="Path 123" d="M310.077,132.651H306.7V111.16h3.377v9.207H313.9V111.16h3.441v21.491H313.9v-9.213h-3.823Z" transform="translate(-111.285 -40.334)" fill="#fefefe"/>
    <path id="Path_124" data-name="Path 124" d="M331.09,111.16h3.383v21.491H331.09Z" transform="translate(-120.135 -40.334)" fill="#fefefe"/>
    <path id="Path_125" data-name="Path 125" d="M347.109,117.086h-.064v15.566H344V111.16h4.237l3.409,12.864h.064V111.16h3.007v21.491h-3.473Z" transform="translate(-124.819 -40.334)" fill="#fefefe"/>
    <path id="Path_126" data-name="Path 126" d="M373.356,120.538h4.728v6.811c0,3.441-1.72,5.409-5.04,5.409s-5.034-1.969-5.034-5.409V116.173c0-3.434,1.72-5.4,5.034-5.4s5.04,1.969,5.04,5.4v2.09H374.9v-2.3c0-1.536-.675-2.122-1.746-2.122s-1.752.586-1.752,2.122v11.6c0,1.536.675,2.09,1.752,2.09s1.746-.554,1.746-2.09v-3.957h-1.529Z" transform="translate(-133.531 -40.192)" fill="#fefefe"/>
    <path id="Path_127" data-name="Path 127" d="M412.749,132.651H409.34l-.586-3.9h-4.142l-.586,3.9h-3.1l3.434-21.491h4.944Zm-7.71-6.818H408.3l-1.587-10.87h-.057Z" transform="translate(-145.476 -40.334)" fill="#fefefe"/>
    <path id="Path_128" data-name="Path 128" d="M428.8,117.086h-.057v15.566H425.7V111.16h4.237l3.409,12.864h.057V111.16h3.007v21.491h-3.466Z" transform="translate(-154.463 -40.334)" fill="#fefefe"/>
    <path id="Path_129" data-name="Path 129" d="M450.13,111.16h5.346c3.377,0,5.034,1.873,5.034,5.314v10.863c0,3.441-1.657,5.314-5.034,5.314H450.13Zm3.377,3.071V129.58h1.911c1.077,0,1.72-.554,1.72-2.09V116.315c0-1.536-.637-2.083-1.72-2.083Z" transform="translate(-163.328 -40.334)" fill="#fefefe"/>
    <path id="Path_130" data-name="Path 130" d="M489.119,110.77c3.288,0,4.976,1.969,4.976,5.4v.675h-3.186v-.886c0-1.536-.637-2.122-1.695-2.122s-1.688.586-1.688,2.122.675,2.733,2.886,4.664c2.829,2.485,3.715,4.269,3.715,6.722,0,3.441-1.714,5.409-5.034,5.409s-5.034-1.969-5.034-5.409V126.03h3.186v1.536c0,1.536.675,2.09,1.752,2.09s1.746-.554,1.746-2.09-.675-2.733-2.886-4.664c-2.823-2.491-3.715-4.269-3.715-6.728C484.149,112.739,485.838,110.77,489.119,110.77Z" transform="translate(-175.639 -40.192)" fill="#fefefe"/>
    <path id="Path_131" data-name="Path 131" d="M505.166,111.16H515.6v3.084h-3.536v18.42H508.69v-18.42h-3.53Z" transform="translate(-183.295 -40.334)" fill="#fefefe"/>
    <path id="Path_132" data-name="Path 132" d="M534.747,132.651a6.562,6.562,0,0,1-.312-2.638v-3.377c0-2-.675-2.733-2.2-2.733h-1.153v8.748H527.7V111.16h5.1c3.5,0,5.008,1.625,5.008,4.944v1.688c0,2.211-.707,3.619-2.211,4.326v.064c1.688.707,2.236,2.3,2.236,4.543v3.313a6.333,6.333,0,0,0,.37,2.612Zm-3.67-18.407v6.6H532.4c1.274,0,2.026-.554,2.026-2.275v-2.115c0-1.536-.522-2.211-1.72-2.211Z" transform="translate(-191.474 -40.334)" fill="#fefefe"/>
    <path id="Path_133" data-name="Path 133" d="M561.269,132.651H557.86l-.586-3.9h-4.141l-.586,3.9h-3.1l3.434-21.491h4.944Zm-7.71-6.818h3.249l-1.593-10.87h-.064Z" transform="translate(-199.366 -40.334)" fill="#fefefe"/>
    <path id="Path_134" data-name="Path 134" d="M570.9,111.16h10.443v3.084h-3.53v18.42H574.43v-18.42H570.9Z" transform="translate(-207.149 -40.334)" fill="#fefefe"/>
    <path id="Path_135" data-name="Path 135" d="M596.787,120.214h4.645v3.071H596.8v6.3h5.83v3.071h-9.22V111.16h9.207v3.084h-5.83Z" transform="translate(-215.316 -40.334)" fill="#fefefe"/>
    <path id="Path_136" data-name="Path 136" d="M619.859,120.538h4.728v6.811c0,3.441-1.72,5.409-5.034,5.409s-5.034-1.969-5.034-5.409V116.173c0-3.434,1.72-5.4,5.034-5.4s5.034,1.969,5.034,5.4v2.09H621.4v-2.3c0-1.536-.675-2.122-1.746-2.122s-1.752.586-1.752,2.122v11.6c0,1.536.675,2.09,1.752,2.09s1.746-.554,1.746-2.09v-3.957h-1.542Z" transform="translate(-222.976 -40.192)" fill="#fefefe"/>
    <path id="Path_137" data-name="Path 137" d="M639.363,125.528,635.1,111.16h3.53l2.549,9.793h.057l2.549-9.793h3.224l-4.263,14.368v7.123h-3.383Z" transform="translate(-230.443 -40.334)" fill="#fefefe"/>
  </g>
</svg>
