<svg xmlns="http://www.w3.org/2000/svg" width="143.713" height="168.321" viewBox="0 0 143.713 168.321">
  <g id="Logo_icon" data-name="Logo icon" transform="translate(0 -0.069)">
    <g id="concept_2" transform="translate(0 0.069)">
      <path id="Path_146" data-name="Path 146" d="M262.9,41.091a8.794,8.794,0,0,0-1.324-4.252c-.556-.849-1.163-1.67-1.8-2.464a21.088,21.088,0,0,1-3.008-4.836,2.611,2.611,0,0,0-.435-.537c-.174.174-.426.319-.512.53a4.971,4.971,0,0,1-2.094,2.391,14.054,14.054,0,0,1-7.03,1.735c-.156,0-.407-.254-.465-.437a12.027,12.027,0,0,0-.265-1.233c-.172-.372-.482-.849-.775-.879-.723-.074-1.014-.568-1.447-.993a2.008,2.008,0,0,1-.53-1.263c-.14-.844-.437-1.663-.642-2.5a9.882,9.882,0,0,1-.249-1.377c-.133-1.412-.184-2.833-.388-4.232a3.869,3.869,0,0,1-.023-1.682,7.017,7.017,0,0,0,.349-3.41,1.065,1.065,0,0,1,.091-.44c.279-1.091.593-2.177.821-3.278a1.1,1.1,0,0,1,.465-.849.946.946,0,0,0,.14-1.573.626.626,0,0,1,.016-1.065c.542-.489,1.117-.931,1.684-1.4a2.691,2.691,0,0,0-.163-4.564,12.685,12.685,0,0,0-1.7-.844C242.853,1.276,242.1.89,241.32.562A5.406,5.406,0,0,0,238.512.1a2.561,2.561,0,0,0-2.131,1.2,7.267,7.267,0,0,0-.651,6.211c.133.358.179.747.293,1.114a.842.842,0,0,1-.293,1.007.85.85,0,0,0-.079,1.286c.421.351.349.7.256,1.121-.107.5-.128,1.019-.2,1.528a.76.76,0,0,1-.126.316,4.6,4.6,0,0,0-.435,4.45,1.628,1.628,0,0,1,.065.563c-.014.477-.067.956-.067,1.433,0,.765-.042,1.861.072,3.489.188,2.733.661,4.764-.147,5.781-.051.063-.184.1-.209.268a4.294,4.294,0,0,1-1,1.917c-.268.358-.465.435-.831.34l-1.9-.486c-.786-.2-1.005-.03-.931.763.1.975.233,1.947.342,2.922l.465,4.008c.037.33.154.575.542.491.444-.1.6.133.623.519.053.882.13,1.761.133,2.643,0,.565.126.982.714,1.163a2.116,2.116,0,0,1,.326.163,1.474,1.474,0,0,1-.158.321,4.317,4.317,0,0,0-.889,3.722c.067.561,0,1.163.528,1.589a.274.274,0,0,1,.042.258,3.978,3.978,0,0,0-.086,2.424,11.84,11.84,0,0,1-.514,6.248.789.789,0,0,0,.233.675,17.6,17.6,0,0,0,1.8,1.449,3.616,3.616,0,0,0,1.491.749,20.089,20.089,0,0,1,3.541.449,4.052,4.052,0,0,1,2.645,1.968c.57,1.038,1.126,2.136,1.663,3.217h8.047a.36.36,0,0,1,0-.07,14.6,14.6,0,0,1,.1-5.709,25.985,25.985,0,0,1,.947-2.689,1.526,1.526,0,0,0-.019-1.312A7.845,7.845,0,0,1,252,53.5a3.489,3.489,0,0,1,.233-.949,1,1,0,0,0-.407-1.384,2.411,2.411,0,0,1-.349-.379c.931.191,1.756.347,2.559.521.563.123,1.119.281,1.682.4a.561.561,0,0,1,.5.663,23.869,23.869,0,0,0,.3,5.448c.114.947.412,1.861.577,2.815s.279,1.842.365,2.771c.1,1.045.191,2.094.193,3.143v.83h.831c0-1.186-.026-2.368-.126-3.545a53.63,53.63,0,0,0-.931-5.746,20.183,20.183,0,0,1,.344-9.91,44.651,44.651,0,0,1,2.308-5.641c.63-1.361.7-1.324,2.18-.919C262.834,41.785,262.948,41.708,262.9,41.091Zm-26.7-30.64c.623-.565,6.639-.556,7.012,0Zm.668-8.577A2.038,2.038,0,0,1,238.77.786a4.653,4.653,0,0,1,2.491.544c1.221.644,2.484,1.226,3.669,1.935a1.9,1.9,0,0,1,.081,3.243,8.582,8.582,0,0,0-2.026,1.861,2.365,2.365,0,0,1-.233.3l-.051.056c-.021.021-.04.042-.06.06l-.079.072a1.446,1.446,0,0,1-.288.186,1.381,1.381,0,0,1-.191.072l-.072,0a2.119,2.119,0,0,1-.7.037c-.368,0-.9,0-1.559.04h-2.308c-.388,0-.586-.107-.67-.521-.126-.621-.326-1.226-.512-1.833a7.181,7.181,0,0,1,.607-4.974Zm9.517,48.78c-.482-.151-.97-.286-1.445-.465-.363-.133-.514-.026-.612.337a11.586,11.586,0,0,1-.465,1.3c-.207.565-.067.833.507.958a.594.594,0,0,1,.17.033c1.666.509,1.607.656,1.454,1.97a38.995,38.995,0,0,1-1.186,7.142,4.252,4.252,0,0,1-.188.542c-.174.372-.363.368-.64.06-1.305-1.435-2.612-2.866-3.955-4.271a3.555,3.555,0,0,1-.361-3.489c.037-.054.119-.079.219-.142a.909.909,0,0,1,.06.181,3.58,3.58,0,0,0,1.715,3.6,12.774,12.774,0,0,1,1.78,1.545c.444.393.737.316.819-.272.233-1.577.4-3.159.591-4.741a.979.979,0,0,0-.556-1.035c-1.628-.968-1.7-.9-1.214-2.875.107-.447.2-.9.344-1.335.177-.556.43-.684.956-.482a15.708,15.708,0,0,1,1.628.717c.209.109.347.358.516.542ZM239.5,50.08c.016-.377.044-.84.549-.858s.507.416.551.742c0,.454-.13.851-.591.865s-.516-.393-.5-.749Zm6.19-11.441c-1.649-.04-3.3-.026-4.953,0-1.9.019-3.8.065-5.7.1a.41.41,0,0,1-.14-.021c-.065-1.228-.114-2.371-.188-3.513-.033-.465.233-.5.579-.465,1.628.233,3.257.5,4.9.7a21.837,21.837,0,0,0,2.64.191c2.166,0,4.339.056,6.493-.109a27.922,27.922,0,0,0,3.98-.87,2.3,2.3,0,0,1,.891-.172,1.04,1.04,0,0,1,.589.556c.465.972.858,1.968,1.291,2.952.126.279.3.54.423.817a3.283,3.283,0,0,1,.142.465,1.572,1.572,0,0,1-.528.137c-.877-.091-1.749-.244-2.629-.319-.663-.056-1.335,0-2-.042-.5-.028-.986-.158-1.484-.191-1.426-.074-2.868-.179-4.3-.209Zm13.772,3.329a31.45,31.45,0,0,0-2.591,6.358c-.2.8-.361,1.61-.482,2.424-.065.433-.274.514-.628.421-.963-.258-1.917-.537-2.882-.782a9.738,9.738,0,0,0-1.247-.2.63.63,0,0,1-.61-.582,3.827,3.827,0,0,1,.365-2.731,1.628,1.628,0,0,1,.6-.507c.621-.335.642-.465.347-1.072a9.071,9.071,0,0,1-1.128-3.771v-.288c.07-1.033.482-1.421,1.5-1.277,2.2.314,4.4.668,6.6,1.012a4.121,4.121,0,0,1,.549.177C259.691,41.487,259.575,41.729,259.458,41.968Zm2.559-1.254c-.449-.1-.821-.174-1.191-.265a10.832,10.832,0,0,0-1.9-.465,2.335,2.335,0,0,1-2.094-1.547c-.586-1.252-1.1-2.536-1.654-3.8a1.058,1.058,0,0,1,.233-1.191,19.046,19.046,0,0,0,1.228-2.224,7.687,7.687,0,0,0,.465.763c.972,1.277,1.938,2.559,2.945,3.815a9.141,9.141,0,0,1,1.991,4.529A2.56,2.56,0,0,1,262.017,40.714Z" transform="translate(-176.642 -0.069)" fill="#fefefe"/>
      <path id="Path_147" data-name="Path 147" d="M259.738,153.918a1.468,1.468,0,0,1-1.531,1.38,1.4,1.4,0,1,1,1.531-1.382Z" transform="translate(-197.16 -117.044)" fill="#fefefe"/>
      <path id="Path_148" data-name="Path 148" d="M318.764,153.76a1.506,1.506,0,0,1,1.461,1.4,1.28,1.28,0,0,1-1.14,1.293c-.791-.016-1.666-.465-1.628-1.254A1.419,1.419,0,0,1,318.764,153.76Z" transform="translate(-243.605 -118.007)" fill="#fefefe"/>
      <path id="Path_149" data-name="Path 149" d="M268.954,11.9a2.157,2.157,0,0,0-2.094,1.991,2.11,2.11,0,0,0,2.159,2.04c1.086.056,1.861-1.231,1.9-2.049a1.912,1.912,0,0,0-1.961-1.982Zm-.1,3.236a1.268,1.268,0,0,1-1.238-1.263,1.356,1.356,0,0,1,1.4-1.263,1.224,1.224,0,0,1,1.163,1.272,1.289,1.289,0,0,1-1.321,1.254Z" transform="translate(-204.78 -9.146)" fill="#fefefe"/>
      <g id="Group_2" data-name="Group 2" transform="translate(0 67.305)">
        <g id="_6Q8uAx" data-name="6Q8uAx" transform="translate(103.121 56.585)">
          <path id="Path_150" data-name="Path 150" d="M443.776,533.14l-.2-.051-.149-.042-.149-.037.121-.1.121-.093.123-.1.121-.1v.34C443.766,533.028,443.776,533.081,443.776,533.14Z" transform="translate(-443.28 -532.63)" fill="#fefefe"/>
        </g>
        <path id="Path_151" data-name="Path 151" d="M316.921,438.549l-.233.188.3.079C317.11,438.712,317.08,438.591,316.921,438.549Zm-4.1-7.782h-.012l-.7-.381c.288.177.582.344.882.507Zm-23.945-20.846c.012.047.023.084.035.116l.084-.109C288.952,409.927,288.913,409.927,288.873,409.922Zm-10.573-.137.086.109a.665.665,0,0,1,.035-.114Z" transform="translate(-213.559 -381.774)" fill="#fefefe"/>
        <path id="Path_152" data-name="Path 152" d="M138.648,349.374c-.561.149-1.124.3-1.689.442l-9.147-.351,2.754-2.133,7.014-.174-7.819-1.328q-2.48,1.279-4.969,2.559l-4.8-1.163c.268-1.163.53-2.308.8-3.464q-1.382,1.642-2.757,3.287-5.583.135-11.187.265l-3.236-.847-.2-.051-.3-.079.233-.188.244-.191v-.779h0v-1.71c0-.433.028-.863.051-1.293a3.59,3.59,0,0,0-.026-.8,1.808,1.808,0,0,0-.233-.684,2.639,2.639,0,0,0-1.333-.965c-.623-.274-1.219-.63-1.861-.842a3.54,3.54,0,0,1-.763-.4c-.3-.163-.593-.33-.882-.507l.7.382a19.427,19.427,0,0,1-6.421-8.663c-2.924-7.937.851-15.451,1.61-16.954,3.138-6.248,8.142-9.249,11.7-11.378a40.562,40.562,0,0,1,18.866-5.6,1.035,1.035,0,0,0,.982-1.044l-.042-4.3a1.038,1.038,0,0,0-1.038-1.028H52.884c-2.643,0-2.643,0-2.871,2.6,0,.091-.112.174-.268.4-2.373,0-4.834-.016-7.3.012-.465,0-1.331.112-1.363.3-.247,1.314-1.221.931-1.975.931q-16.517.026-33.059.014a10.983,10.983,0,0,0-1.517.028,1.5,1.5,0,0,0-1.124,2.461,21.213,21.213,0,0,0,1.38,1.7,43.685,43.685,0,0,0,15.433,12.285A40.626,40.626,0,0,0,33.157,313.7a39.288,39.288,0,0,0,6.358.112c.482.072,6.723,1.107,9.247,6.621,2.2,4.808.623,10.948-4.059,14.644l-7.16,5.56c-.091.181-.165.337-.254.519h0c-.035.761-.056,1.521-.065,2.291-.019,1.54,0,3.11,0,4.764H34.767l-9.491-3.843,2.18,4.42,2.44.931-10.7,2.64L0,353.094l12.011.593L8.375,356.33.73,361.1l8.082-3.373,3.822-2.31,9.5-2.4,5.153-.886,9.326-1.689v2.575q-3.722,2.445-7.463,4.885-1.628,2.222-3.285,4.441,4.487-1.949,8.97-3.908,2.666-1.817,5.327-3.641,1.78-2.354,3.555-4.706l5.15.8,3.285,3.643L46.1,359.145l9.771,5.583-9.326,7.281q-4.483.979-8.97,1.954-2.129,1.152-4.262,2.312l3.82-.358-3.378,5.062,5.862-4.885,5.506-.7L51,383.748l-5.683,6.658,7.46-5.062,4.969,4.176L49.318,373.8l13.4-7.73,6.66-.8,3.817,3.827c-.5-1.182-1-2.368-1.507-3.55,2.31.056,4.618.119,6.928.174L62.985,363.5q-2.966-2.27-5.948-4.534l5.418-4.439L66,353.194q4.266,2.526,8.528,5.064l-.977-1.954,6.483-.447-7.1-1.242-1.78-2.487c3.878.056,11.215.119,15.091.174q2,4.355,4,8.705.268,4.371.533,8.747c.142,1.14.279,2.282.423,3.42q-3.034,4.18-6.058,8.356l8.547-6.451q2.117,2.987,4.232,5.983l-3.8,3.327,5.7-1.728q-.986-3.966-1.977-7.937l7.426,1.349-10.934-7.444v-7.972q4.3-.084,8.607-.177l3.817,4.618q-.4-2.215-.8-4.441,4.394.093,8.791.181l-19.806-4.355q.356-1.726.712-3.464l-4.439-3.469,10.568.621,19.718,9.149q-4-3.2-7.984-6.395l3.378-.088,3.55,1.861c-.233-.682-.465-1.363-.71-2.043l2.219-1.163h-11.29q-1.291-.886-2.575-1.777l12.871-.516q3.375.7,6.746,1.419l4.264,2.929-1.689-2.575,6.839-.088,2.4-.354,4.187.442ZM79.56,296.543c.44.186.907.4,1.4.658q.482.251.979.554h0a15.286,15.286,0,0,1,4.464,4.106,2.257,2.257,0,0,0-1.184,1.984,2.224,2.224,0,0,0,.221.97l-.651.465a9.65,9.65,0,0,0-2.138-3.355,9.829,9.829,0,0,0-.989-.877,9.521,9.521,0,0,0-1.936-1.163,4.534,4.534,0,0,0,.04-.619v-.047a4.418,4.418,0,0,0-.047-.612,4.711,4.711,0,0,0-.7-1.891,4.454,4.454,0,0,0-.382-.526C78.929,296.294,79.232,296.411,79.56,296.543Zm-9.035,4.218a3.083,3.083,0,0,0,.2.4l-.056.04a4.784,4.784,0,0,0,.842,1.2,4.925,4.925,0,0,0,.309,3.052,4.762,4.762,0,0,0,1.149,1.549L71.8,309.129a.233.233,0,0,0-.014.174h0a.216.216,0,0,0,.072.1.233.233,0,0,0,.314-.079l1.691-2.687a3.067,3.067,0,0,0,1.61,1.873,2.74,2.74,0,0,0,1.135.219.323.323,0,0,0,.121.437.288.288,0,0,0,.251-.051h0a11.415,11.415,0,0,0,3.766-4.653,4.244,4.244,0,0,0,.126-3.12c-.028-.065-.056-.13-.091-.2a9.014,9.014,0,0,1,2.01,1.889,8.894,8.894,0,0,1,1.375,2.519l-7.288,5.22h0l-1.042.747.049-.288.533-.526a.177.177,0,0,0-.2-.288l-.2.13-4.1,2.7a.665.665,0,0,1-.73-1.1c.337-.465.291-.954.1-1.079s-.5,0-.77.27Zm-9-4.715a4.778,4.778,0,0,0-1.117,3.075,4.9,4.9,0,0,0,.04.616,9.661,9.661,0,0,0-5.06,5.4l-.651-.465a2.212,2.212,0,0,0,.219-.968,2.257,2.257,0,0,0-1.182-1.984A16.326,16.326,0,0,1,61.529,296.046Zm-.3,27.59c-.216-.291-.43-.584-.644-.875a7.063,7.063,0,0,0-1.245-2.629A7.84,7.84,0,0,0,56.9,318.15a13.663,13.663,0,0,1-4.79-5.157,9.84,9.84,0,0,1-.544-6.746c.051-.165.1-.335.161-.509a2.259,2.259,0,0,0,2.61-.465l.821.589a9.624,9.624,0,0,0,4.127,10.8,3.523,3.523,0,0,0,.154.584h1.245c.028.058.054.116.081.179a9.494,9.494,0,0,1,.465,6.228Zm3.631-6.244c-.012.044-.026.084-.035.114l-.086-.109c-.556-.716-1.11-1.433-1.668-2.149a1.517,1.517,0,0,0-.735-2.166,2.511,2.511,0,0,0-2.582,1.107,2.791,2.791,0,0,0-.54,1.547,8.887,8.887,0,0,1-3.438-9.438l8.738,6.265h0a2.01,2.01,0,0,0-.644,1.11,2.243,2.243,0,0,0,.6,1.861,2.021,2.021,0,0,1,.4.8,2.045,2.045,0,0,1-.016,1.068Zm2.129,3.094a3.508,3.508,0,0,0-1.51-2.959,1.9,1.9,0,0,0,.423-.665,1.929,1.929,0,0,0,.074-1.056,4.083,4.083,0,0,1,1.359,2.536,4.008,4.008,0,0,1-.34,2.15Zm2.673,9.833a7.653,7.653,0,0,0-1.045-1.628,7.876,7.876,0,0,0-1.247-1.182,22.235,22.235,0,0,0,.428-2.284c.065-.493.109-.965.14-1.414.026-.4.04-.779.044-1.14v-2.724a9.568,9.568,0,0,0-.326-2.2l-.028-.1h0a.364.364,0,0,0-.019-.067c-.063-.233-.13-.454-.214-.7a5.194,5.194,0,0,0-.772-1.449,5.478,5.478,0,0,0-.719-.768c-.163.1-.34.2-.533.3s-.347.167-.509.233a1.689,1.689,0,0,1-.442-1.526,1.491,1.491,0,0,1,.572-.793,8.7,8.7,0,0,0,.931.793,8.048,8.048,0,0,0,.83.535h1.67a4.36,4.36,0,0,0,.288.435,4.429,4.429,0,0,0,.351.412,4.289,4.289,0,0,0,.589.507Zm0-18.983c-.275-.265-.607-.375-.77-.27s-.233.607.1,1.079a.666.666,0,0,1-.733,1.1l-.193-.128-4.09-2.7a.181.181,0,0,0-.233.033.184.184,0,0,0,.033.256l.537.537.049.288-8.344-5.979a8.931,8.931,0,0,1,3.385-4.408,2.135,2.135,0,0,0-.091.2c-.875,2.15.668,5.3,3.89,7.779a.3.3,0,0,0,.261.056.326.326,0,0,0,.121-.437,2.762,2.762,0,0,0,1.133-.219,3.08,3.08,0,0,0,1.612-1.873q.844,1.345,1.691,2.687a.21.21,0,0,0,.372-.2l-1.163-2.124a4.715,4.715,0,0,0,1.147-1.547,4.32,4.32,0,0,0,.233-.593h0a4.985,4.985,0,0,0,.088-2.457,4.8,4.8,0,0,0,.833-1.182l-.054-.04a.07.07,0,0,0,0-.019l.054-.093.112-.233.035-.088ZM73.544,319a3.49,3.49,0,0,0-.363,1.628,3.971,3.971,0,0,1-.347-2.143,3.677,3.677,0,0,1,.109-.556,4.007,4.007,0,0,1,.682-1.37,4.114,4.114,0,0,1,.568-.609A1.884,1.884,0,0,0,74.268,317a1.861,1.861,0,0,0,.423.663A3.531,3.531,0,0,0,73.549,319Zm.8-4.143-.074-.044a5.176,5.176,0,0,0-1.493,2.215c-.084.233-.151.465-.212.7-.016.056-.03.112-.047.165-.06.233-.123.491-.179.791a9.793,9.793,0,0,0-.149,1.414v2.733a21.963,21.963,0,0,0,.186,2.559,21,21,0,0,0,.442,2.275,7.677,7.677,0,0,0-2.3,2.815V315.712a4.466,4.466,0,0,0,.591-.507,4.3,4.3,0,0,0,.64-.849h1.67c.151-.084.312-.181.477-.291h0c.114-.072.233-.154.351-.233a8.194,8.194,0,0,0,.931-.8c.033.023.077.056.13.1a1.458,1.458,0,0,1,.444.7,1.7,1.7,0,0,1-.444,1.524c-.161-.067-.333-.147-.507-.233s-.307-.186-.449-.27Zm3.489-1.628a1.517,1.517,0,0,0-.737,2.168l-1.668,2.15-.084.109a.683.683,0,0,0-.035-.116,2.04,2.04,0,0,1,.384-1.861,2.2,2.2,0,0,0,.6-1.861,2.026,2.026,0,0,0-.642-1.11h0l8.749-6.26a8.9,8.9,0,0,1-3.443,9.44,2.827,2.827,0,0,0-.54-1.549,2.507,2.507,0,0,0-2.578-1.107Zm10.236-.091a13.671,13.671,0,0,1-4.783,5.164,7.806,7.806,0,0,0-2.443,1.982,7.019,7.019,0,0,0-1.245,2.626l-.644.875a9.484,9.484,0,0,1,.465-6.225c.026-.063.054-.123.079-.182h1.245a3.352,3.352,0,0,0,.156-.584A9.608,9.608,0,0,0,85.02,306l.824-.591a2.252,2.252,0,0,0,2.608.465c.058.172.112.342.161.507a9.831,9.831,0,0,1-.542,6.758Z" transform="translate(0 -289.39)" fill="#fefefe"/>
        <path id="Path_153" data-name="Path 153" d="M425.285,499.213c-.258-.128-.514-.261-.763-.4-.3-.163-.593-.33-.882-.507l.7.382h.012Z" transform="translate(-325.088 -449.709)" fill="#fefefe"/>
        <path id="Path_154" data-name="Path 154" d="M278.421,409.78c-.012.044-.026.084-.035.114l-.086-.109Z" transform="translate(-213.559 -381.774)" fill="#fefefe"/>
        <path id="Path_155" data-name="Path 155" d="M278.3,409.785l.086.109a.664.664,0,0,1,.035-.114Z" transform="translate(-213.559 -381.774)" fill="#fefefe"/>
        <path id="Path_156" data-name="Path 156" d="M323.869,410.4l-.084.109a.682.682,0,0,0-.035-.116C323.79,410.395,323.829,410.395,323.869,410.4Z" transform="translate(-248.436 -382.242)" fill="#fefefe"/>
        <path id="Path_157" data-name="Path 157" d="M323.75,410.39a1.207,1.207,0,0,0,.035.116l.084-.109C323.829,410.395,323.79,410.395,323.75,410.39Z" transform="translate(-248.436 -382.242)" fill="#fefefe"/>
      </g>
    </g>
  </g>
</svg>
