<svg xmlns="http://www.w3.org/2000/svg" width="65.958" height="39.198" viewBox="0 0 65.958 39.198">
  <g id="bottom_mark" data-name="bottom mark" transform="translate(0 0.01)">
    <g id="concept_2" data-name="concept 2" transform="translate(0 -0.01)">
      <g id="_6Q8uAx" data-name=" 6Q8uAx" transform="translate(47.192 3.265)">
        <path id="Path_164" data-name="Path 164" d="M443.7,229.238l-.166-.043-.125-.033-.125-.033.1-.078.1-.08c.035-.025.068-.053.1-.08l.1-.08v.285C443.689,229.134,443.7,229.183,443.7,229.238Z" transform="translate(-443.28 -228.81)" fill="#b0925a"/>
      </g>
      <path id="Path_165" data-name="Path 165" d="M17.083,212.479v3.38H15.957L11.6,212.63l1,3.714,1.12.782-4.911,2.219-8.809.6,5.512.5-1.669,2.221L.335,226.674l3.709-2.835L5.8,221.9l4.359-2.016,2.365-.745,4.28-1.419v2.164q-1.708,2.055-3.425,4.105-.747,1.871-1.508,3.732,2.06-1.636,4.117-3.284,1.224-1.529,2.445-3.059.817-1.976,1.631-3.955l2.364.671,1.508,3.061-2.776,3.881,4.484,4.692-4.28,6.119q-2.058.827-4.117,1.642L15.29,239.43l1.753-.3L15.5,243.393l2.691-4.105,2.525-.6,2.691,7.022-2.608,5.6,3.424-4.254,2.281,3.519-3.865-13.225,6.155-6.492,3.057-.674L33.6,233.4c-.23-.993-.461-1.99-.692-2.983,1.06.047,2.119.1,3.18.147L28.912,228.7l-2.734-3.812,2.487-3.73,1.629-1.12q1.958,2.123,3.914,4.256l-.448-1.642,2.976-.375-3.261-1.044-.817-2.1c1.78.047,5.147.1,6.926.147q.919,3.66,1.835,7.315.123,3.675.245,7.351c.065.958.128,1.918.194,2.874q-1.388,3.519-2.776,7.022L43,238.414q.973,2.51,1.942,5.028l-1.746,2.8,2.617-1.453q-.453-3.335-.908-6.67l3.408,1.134L43.3,232.993V226.3q1.975-.07,3.95-.149L49,230.033q-.183-1.863-.365-3.732,2.016.082,4.035.152l-9.09-3.66q.163-1.451.327-2.911l-2.042-2.907,4.85.522,9.05,7.689L52.1,219.809l1.55-.074,1.629,1.564q-.16-.859-.32-1.716l1.019-.977H50.794q-.593-.745-1.182-1.494l5.908-.442q1.548.586,3.1,1.193l1.957,2.461-.775-2.164,3.139-.074,1.1-.3,1.922.371-2.324-1.335c-.257.125-.516.25-.775.371l-4.2-.3,1.263-1.795,3.219-.147-3.587-1.122L57.275,216l-2.2-.977c.123-.977.243-1.939.367-2.911q-.634,1.38-1.265,2.762-2.562.113-5.134.223l-1.485-.712-.091-.043-.137-.066.107-.158.112-.16v-1.476" transform="translate(0 -212.11)" fill="#b0925a"/>
    </g>
  </g>
</svg>
